# xmcd CD database file
#
# Track frame offsets:
#	180
#	12672
#	36485
#	60330
#	89710
#	94657
#	112217
#	134825
#	151987
#	169182
#	190365
#	203252
#	216492
#	234727
#	252777
#	273847
#
# Disc length: 3852 seconds
#
# Revision: 0
# Processed by: cddbd v1.5PL3 Copyright (c) Steve Scherf et al.
# Submitted via: CDex 1.51
#
DISCID=ee0f0a10
DTITLE=Thomas Stabenow - Sweet Peanuts
DYEAR=1993
DGENRE=Jazz
TTITLE0=All The Things You Are (J. Kern)
TTITLE1=Sometime Ago (S. Mihanovich)
TTITLE2=Out Of Nowhere (J. Green)
TTITLE3=In A Sentimental Mood (D. Ellington)
TTITLE4=Sweet Peanuts (L. Schmitz/T. Stabenow)
TTITLE5=Waltz for Babutti (L. Schmitz)
TTITLE6=Beautiful Love (V. Young)
TTITLE7=Big Foot (C. Parker)
TTITLE8=Blue In Green (Davins/Evans)
TTITLE9=I Love You (C. Parker)
TTITLE10=Oleo (Sonny Rollins)
TTITLE11=Der Mond ist aufgegangen (trad. arr. by L. Schmitz)
TTITLE12=A Foggy Day (G. Gerschwin)
TTITLE13=Karinas Lullaby (L. Schmitz)
TTITLE14=Laverne Walk (O. Pettiford)
TTITLE15=My Romance (Rodgers/Hart)
EXTD=YEAR: 1993
EXTT0=
EXTT1=
EXTT2=
EXTT3=
EXTT4=
EXTT5=
EXTT6=
EXTT7=
EXTT8=
EXTT9=
EXTT10=
EXTT11=
EXTT12=
EXTT13=
EXTT14=
EXTT15=
PLAYORDER=
